<svg width="1440" height="600" viewBox="0 0 1440 600" xmlns="http://www.w3.org/2000/svg"><title>hero-gray</title><g fill="none" fill-rule="evenodd" opacity=".15"><g stroke="#595959" stroke-width="2"><path d="M315 169.584V171a4 4 0 0 0 4 4h4m-8-14.594V160a7 7 0 0 1 7-7h2a7 7 0 0 1 7 7v.422"/><path d="M318 160.101a5 5 0 1 0 0 9.798v-9.798zm10 9.798a5 5 0 1 0 0-9.798v9.798z" stroke-linecap="square"/></g><g stroke="#595959" stroke-width="2"><path d="M806.799 199.601C808.092 201.61 810.826 203 814 203c.59 0 1.163-.051 1.716-.142L820 205v-4.04c1.241-1.057 2-2.44 2-3.96 0-1.552-.792-2.961-2.081-4.027"/><path d="M810 184c-5.523 0-10 3.582-10 8 0 1.797.75 3.45 2 4.785V202l4.833-2.416c.996.266 2.059.416 3.167.416 5.523 0 10-3.582 10-8s-4.477-8-10-8z" stroke-linecap="square"/></g><path d="M310.102 342h-36.204c-1.6 0-2.898-1.326-2.898-2.962v-52.076c0-1.636 1.298-2.962 2.898-2.962h36.204c1.6 0 2.898 1.326 2.898 2.962v52.076c0 1.636-1.298 2.962-2.898 2.962z"/><path d="M310.102 342h-36.204c-1.6 0-2.898-1.326-2.898-2.962v-52.076c0-1.636 1.298-2.962 2.898-2.962h36.204c1.6 0 2.898 1.326 2.898 2.962v52.076c0 1.636-1.298 2.962-2.898 2.962z" stroke="#595959" stroke-width="2" stroke-linecap="round"/><path d="M271 290h42v44h-42z"/><path stroke="#595959" stroke-width="2" stroke-linecap="round" d="M271 290h42v44h-42zm4 8l4-4m-4 9l2-2m4-4l3-3m-9 14l9-9m4-4l1-1m4-7h1"/><path d="M296 338a3 3 0 1 1-6 0 3 3 0 0 1 6 0z"/><path d="M296 338a3 3 0 1 1-6 0 3 3 0 0 1 6 0z" stroke="#595959" stroke-width="2" stroke-linecap="round"/><path d="M1069.102 82h-36.204c-1.6 0-2.898-1.326-2.898-2.962V26.962c0-1.636 1.298-2.962 2.898-2.962h36.204c1.6 0 2.898 1.326 2.898 2.962v52.076c0 1.636-1.298 2.962-2.898 2.962z"/><path d="M1069.102 82h-36.204c-1.6 0-2.898-1.326-2.898-2.962V26.962c0-1.636 1.298-2.962 2.898-2.962h36.204c1.6 0 2.898 1.326 2.898 2.962v52.076c0 1.636-1.298 2.962-2.898 2.962z" stroke="#595959" stroke-width="2" stroke-linecap="round"/><path d="M1030 30h42v44h-42z"/><path stroke="#595959" stroke-width="2" stroke-linecap="round" d="M1030 30h42v44h-42zm4 8l4-4m-4 9l2-2m4-4l3-3m-9 14l9-9m4-4l1-1m4-7h1"/><path d="M1055 78a3 3 0 1 1-6 0 3 3 0 0 1 6 0z"/><path d="M1055 78a3 3 0 1 1-6 0 3 3 0 0 1 6 0z" stroke="#595959" stroke-width="2" stroke-linecap="round"/><g stroke-linecap="square" stroke="#595959" stroke-width="2"><path d="M943 107v11l-4-3-4 3v-11"/><path d="M931 107h20v22h-20z"/></g><path d="M828.462 358.735l-15.626-2.694a69.636 69.636 0 0 0-23.672 0l-15.625 2.694a1.316 1.316 0 0 1-1.539-1.296v-34.878c0-.815.735-1.434 1.539-1.296l15.625 2.694a69.636 69.636 0 0 0 23.672 0l15.626-2.694a1.316 1.316 0 0 1 1.538 1.296v34.878c0 .815-.735 1.434-1.538 1.296z"/><path d="M828.462 358.735l-15.626-2.694a69.636 69.636 0 0 0-23.672 0l-15.625 2.694a1.316 1.316 0 0 1-1.539-1.296v-34.878c0-.815.735-1.434 1.539-1.296l15.625 2.694a69.636 69.636 0 0 0 23.672 0l15.626-2.694a1.316 1.316 0 0 1 1.538 1.296v34.878c0 .815-.735 1.434-1.538 1.296z" stroke="#595959" stroke-width="2" stroke-linecap="round"/><path d="M787 360h28v3h-28z"/><path stroke="#595959" stroke-width="2" stroke-linecap="round" d="M787 360h28v3h-28zm14-5v5m-22-26l4-4m-4 9l2-2m4-4l3-3m-9 14l9-9m4-4l1-1"/><path d="M1232 200h4v7h-4z"/><path stroke="#595959" stroke-width="2" d="M1232 200h4v7h-4z"/><path d="M1274 200h4v7h-4z"/><path stroke="#595959" stroke-width="2" d="M1274 200h4v7h-4z"/><path d="M1236.514 227h-5.224a.29.29 0 0 1-.29-.29v-19.227c0-.267.216-.483.483-.483h4.73a3.786 3.786 0 0 1 3.787 3.787v12.727a3.486 3.486 0 0 1-3.486 3.486z"/><path d="M1236.514 227h-5.224a.29.29 0 0 1-.29-.29v-19.227c0-.267.216-.483.483-.483h4.73a3.786 3.786 0 0 1 3.787 3.787v12.727a3.486 3.486 0 0 1-3.486 3.486z" stroke="#595959" stroke-width="2"/><path d="M1231 227a5 5 0 0 1-5-5v-10a5 5 0 0 1 5-5v20z"/><path d="M1231 227a5 5 0 0 1-5-5v-10a5 5 0 0 1 5-5v20z" stroke="#595959" stroke-width="2"/><path d="M1279 227v-20a5 5 0 0 1 5 5v10a5 5 0 0 1-5 5z"/><path d="M1279 227v-20a5 5 0 0 1 5 5v10a5 5 0 0 1-5 5z" stroke="#595959" stroke-width="2"/><path d="M1278.71 227h-5.224a3.486 3.486 0 0 1-3.486-3.486v-12.727a3.786 3.786 0 0 1 3.787-3.787h4.882a.33.33 0 0 1 .331.331v19.379c0 .16-.13.29-.29.29z"/><path d="M1278.71 227h-5.224a3.486 3.486 0 0 1-3.486-3.486v-12.727a3.786 3.786 0 0 1 3.787-3.787h4.882a.33.33 0 0 1 .331.331v19.379c0 .16-.13.29-.29.29z" stroke="#595959" stroke-width="2"/><path d="M1237 211h3m-3 4h3m-3 4h3m-3 4h3m30-12h3m-3 4h3m-3 4h3m-3 4h3" stroke="#595959" stroke-width="2" stroke-linecap="round"/><path d="M1269.483 186.495c-.719.662-1.81.656-2.549.016-2.627-2.275-8.42-3.511-11.934-3.511-3.514 0-9.307 1.236-11.934 3.511-.739.64-1.83.646-2.549-.016l-3.101-2.85c-.818-.751-.835-2.055-.012-2.801 4.123-3.735 12.019-5.844 17.596-5.844s13.473 2.109 17.596 5.844c.823.746.806 2.05-.012 2.801l-3.101 2.85z"/><path d="M1269.483 186.495c-.719.662-1.81.656-2.549.016-2.627-2.275-8.42-3.511-11.934-3.511-3.514 0-9.307 1.236-11.934 3.511-.739.64-1.83.646-2.549-.016l-3.101-2.85c-.818-.751-.835-2.055-.012-2.801 4.123-3.735 12.019-5.844 17.596-5.844s13.473 2.109 17.596 5.844c.823.746.806 2.05-.012 2.801l-3.101 2.85z" stroke="#595959" stroke-width="2" stroke-linecap="round"/><path d="M1240.517 186.495l-3.101-2.85a1.895 1.895 0 0 1-.524-.843c-3.673 4.066-5.892 9.594-5.892 15.584V200h6v-1.614c0-4.366 1.622-8.462 4.304-11.466a1.857 1.857 0 0 1-.787-.425z"/><path d="M1240.517 186.495l-3.101-2.85a1.895 1.895 0 0 1-.524-.843c-3.673 4.066-5.892 9.594-5.892 15.584V200h6v-1.614c0-4.366 1.622-8.462 4.304-11.466a1.857 1.857 0 0 1-.787-.425z" stroke="#595959" stroke-width="2"/><path d="M1272.949 183.169a1.865 1.865 0 0 1-.365.476l-3.101 2.85a1.864 1.864 0 0 1-1.24.493c2.904 2.999 4.757 7.063 4.757 11.398V200h6v-1.614c0-5.812-2.324-11.188-6.051-15.217z"/><path d="M1272.949 183.169a1.865 1.865 0 0 1-.365.476l-3.101 2.85a1.864 1.864 0 0 1-1.24.493c2.904 2.999 4.757 7.063 4.757 11.398V200h6v-1.614c0-5.812-2.324-11.188-6.051-15.217z" stroke="#595959" stroke-width="2"/><path d="M107 362h4v7h-4z"/><path stroke="#595959" stroke-width="2" d="M107 362h4v7h-4z"/><path d="M149 362h4v7h-4z"/><path stroke="#595959" stroke-width="2" d="M149 362h4v7h-4z"/><path d="M111.514 389h-5.224a.29.29 0 0 1-.29-.29v-19.227c0-.267.216-.483.483-.483h4.73a3.786 3.786 0 0 1 3.787 3.787v12.727a3.486 3.486 0 0 1-3.486 3.486z"/><path d="M111.514 389h-5.224a.29.29 0 0 1-.29-.29v-19.227c0-.267.216-.483.483-.483h4.73a3.786 3.786 0 0 1 3.787 3.787v12.727a3.486 3.486 0 0 1-3.486 3.486z" stroke="#595959" stroke-width="2"/><path d="M106 389a5 5 0 0 1-5-5v-10a5 5 0 0 1 5-5v20z"/><path d="M106 389a5 5 0 0 1-5-5v-10a5 5 0 0 1 5-5v20z" stroke="#595959" stroke-width="2"/><path d="M154 389v-20a5 5 0 0 1 5 5v10a5 5 0 0 1-5 5z"/><path d="M154 389v-20a5 5 0 0 1 5 5v10a5 5 0 0 1-5 5z" stroke="#595959" stroke-width="2"/><path d="M153.71 389h-5.224a3.486 3.486 0 0 1-3.486-3.486v-12.727a3.786 3.786 0 0 1 3.787-3.787h4.882a.33.33 0 0 1 .331.331v19.379c0 .16-.13.29-.29.29z"/><path d="M153.71 389h-5.224a3.486 3.486 0 0 1-3.486-3.486v-12.727a3.786 3.786 0 0 1 3.787-3.787h4.882a.33.33 0 0 1 .331.331v19.379c0 .16-.13.29-.29.29z" stroke="#595959" stroke-width="2"/><path d="M112 373h3m-3 4h3m-3 4h3m-3 4h3m30-12h3m-3 4h3m-3 4h3m-3 4h3" stroke="#595959" stroke-width="2" stroke-linecap="round"/><path d="M144.483 348.495c-.719.662-1.81.656-2.549.016-2.627-2.275-8.42-3.511-11.934-3.511-3.514 0-9.307 1.236-11.934 3.511-.739.64-1.83.646-2.549-.016l-3.101-2.85c-.818-.751-.835-2.055-.012-2.801C116.527 339.109 124.423 337 130 337s13.473 2.109 17.596 5.844c.823.746.806 2.05-.012 2.801l-3.101 2.85z"/><path d="M144.483 348.495c-.719.662-1.81.656-2.549.016-2.627-2.275-8.42-3.511-11.934-3.511-3.514 0-9.307 1.236-11.934 3.511-.739.64-1.83.646-2.549-.016l-3.101-2.85c-.818-.751-.835-2.055-.012-2.801C116.527 339.109 124.423 337 130 337s13.473 2.109 17.596 5.844c.823.746.806 2.05-.012 2.801l-3.101 2.85z" stroke="#595959" stroke-width="2" stroke-linecap="round"/><path d="M115.517 348.495l-3.101-2.85a1.895 1.895 0 0 1-.524-.843c-3.673 4.066-5.892 9.594-5.892 15.584V362h6v-1.614c0-4.366 1.622-8.462 4.304-11.466a1.857 1.857 0 0 1-.787-.425z"/><path d="M115.517 348.495l-3.101-2.85a1.895 1.895 0 0 1-.524-.843c-3.673 4.066-5.892 9.594-5.892 15.584V362h6v-1.614c0-4.366 1.622-8.462 4.304-11.466a1.857 1.857 0 0 1-.787-.425z" stroke="#595959" stroke-width="2"/><path d="M147.949 345.169a1.865 1.865 0 0 1-.365.476l-3.101 2.85a1.864 1.864 0 0 1-1.24.493c2.904 2.999 4.757 7.063 4.757 11.398V362h6v-1.614c0-5.812-2.324-11.188-6.051-15.217z"/><path d="M147.949 345.169a1.865 1.865 0 0 1-.365.476l-3.101 2.85a1.864 1.864 0 0 1-1.24.493c2.904 2.999 4.757 7.063 4.757 11.398V362h6v-1.614c0-5.812-2.324-11.188-6.051-15.217z" stroke="#595959" stroke-width="2"/><path d="M1185.857 569h-43.714a3.143 3.143 0 0 1-3.143-3.143v-41.714a3.143 3.143 0 0 1 3.143-3.143h43.714a3.143 3.143 0 0 1 3.143 3.143v41.714a3.143 3.143 0 0 1-3.143 3.143z"/><path d="M1185.857 569h-43.714a3.143 3.143 0 0 1-3.143-3.143v-41.714a3.143 3.143 0 0 1 3.143-3.143h43.714a3.143 3.143 0 0 1 3.143 3.143v41.714a3.143 3.143 0 0 1-3.143 3.143z" stroke="#595959" stroke-width="2"/><path d="M1143 569h42v10h-42z"/><path stroke="#595959" stroke-width="2" stroke-linecap="round" d="M1143 569h42v10h-42z"/><path d="M1171 572h11v4h-11z"/><path stroke="#595959" stroke-width="2" d="M1171 572h11v4h-11z"/><path d="M1178 576h4v-4h-4z"/><path stroke="#595959" stroke-width="2" d="M1178 576h4v-4h-4z"/><path d="M1181.128 555h-34.256a3.873 3.873 0 0 1-3.872-3.872v-21.256a3.873 3.873 0 0 1 3.872-3.872h34.256a3.873 3.873 0 0 1 3.872 3.872v21.256a3.873 3.873 0 0 1-3.872 3.872z"/><path d="M1181.128 555h-34.256a3.873 3.873 0 0 1-3.872-3.872v-21.256a3.873 3.873 0 0 1 3.872-3.872h34.256a3.873 3.873 0 0 1 3.872 3.872v21.256a3.873 3.873 0 0 1-3.872 3.872z" stroke="#595959" stroke-width="2"/><path d="M1148 535l4-4m-4 9l2-2m4-4l3-3m-9 14l9-9m4-4l1-1" stroke="#595959" stroke-width="2" stroke-linecap="round"/><path d="M1145 563h4v3h-4z"/><path stroke="#595959" stroke-width="2" d="M1145 563h4v3h-4zm20-1h11m6 0h3"/><path d="M1175 560h7v4h-7z"/><path stroke="#595959" stroke-width="2" d="M1175 560h7v4h-7z"/><path d="M1370 92h-22l-4.212 6.425a7.46 7.46 0 0 0-.788 3.336v24.478c0 1.158.27 2.3.788 3.336L1348 136h22l4.212-6.425a7.46 7.46 0 0 0 .788-3.336v-24.478c0-1.158-.27-2.3-.788-3.336L1370 92z"/><path d="M1370 92h-22l-4.212 6.425a7.46 7.46 0 0 0-.788 3.336v24.478c0 1.158.27 2.3.788 3.336L1348 136h22l4.212-6.425a7.46 7.46 0 0 0 .788-3.336v-24.478c0-1.158-.27-2.3-.788-3.336L1370 92z" stroke="#595959" stroke-width="2" stroke-linecap="round"/><path d="M1368.579 126h-19.158a2.421 2.421 0 0 1-2.421-2.421v-21.158a2.421 2.421 0 0 1 2.421-2.421h19.158a2.421 2.421 0 0 1 2.421 2.421v21.158a2.421 2.421 0 0 1-2.421 2.421z"/><path d="M1368.579 126h-19.158a2.421 2.421 0 0 1-2.421-2.421v-21.158a2.421 2.421 0 0 1 2.421-2.421h19.158a2.421 2.421 0 0 1 2.421 2.421v21.158a2.421 2.421 0 0 1-2.421 2.421zm-8.124 7h-2.91a.545.545 0 0 1-.545-.545v-2.91c0-.301.244-.545.545-.545h2.91c.301 0 .545.244.545.545v2.91a.545.545 0 0 1-.545.545z" stroke="#595959" stroke-width="2" stroke-linecap="round"/><path d="M1348 85h22v7h-22z"/><path stroke="#595959" stroke-width="2" stroke-linecap="round" d="M1348 85h22v7h-22z"/><path d="M1348 136h22v7h-22z"/><path stroke="#595959" stroke-width="2" stroke-linecap="round" d="M1348 136h22v7h-22zm3-28l4-4m-4 9l2-2m4-4l3-3m-9 14l9-9m4-4l1-1"/><path d="M462 460h-22l-4.212 6.425a7.46 7.46 0 0 0-.788 3.336v24.478c0 1.158.27 2.3.788 3.336L440 504h22l4.212-6.425a7.46 7.46 0 0 0 .788-3.336v-24.478c0-1.158-.27-2.3-.788-3.336L462 460z"/><path d="M462 460h-22l-4.212 6.425a7.46 7.46 0 0 0-.788 3.336v24.478c0 1.158.27 2.3.788 3.336L440 504h22l4.212-6.425a7.46 7.46 0 0 0 .788-3.336v-24.478c0-1.158-.27-2.3-.788-3.336L462 460z" stroke="#595959" stroke-width="2" stroke-linecap="round"/><path d="M460.579 494h-19.158a2.421 2.421 0 0 1-2.421-2.421v-21.158a2.421 2.421 0 0 1 2.421-2.421h19.158a2.421 2.421 0 0 1 2.421 2.421v21.158a2.421 2.421 0 0 1-2.421 2.421z"/><path d="M460.579 494h-19.158a2.421 2.421 0 0 1-2.421-2.421v-21.158a2.421 2.421 0 0 1 2.421-2.421h19.158a2.421 2.421 0 0 1 2.421 2.421v21.158a2.421 2.421 0 0 1-2.421 2.421zm-8.124 7h-2.91a.545.545 0 0 1-.545-.545v-2.91c0-.301.244-.545.545-.545h2.91c.301 0 .545.244.545.545v2.91a.545.545 0 0 1-.545.545z" stroke="#595959" stroke-width="2" stroke-linecap="round"/><path d="M440 453h22v7h-22z"/><path stroke="#595959" stroke-width="2" stroke-linecap="round" d="M440 453h22v7h-22z"/><path d="M440 504h22v7h-22z"/><path stroke="#595959" stroke-width="2" stroke-linecap="round" d="M440 504h22v7h-22zm3-28l4-4m-4 9l2-2m4-4l3-3m-9 14l9-9m4-4l1-1"/><path d="M141.824 581h-29.648c-6.173 0-11.176-5.004-11.176-11.176v-29.648c0-6.173 5.003-11.176 11.176-11.176h29.648c6.172 0 11.176 5.003 11.176 11.176v29.648c0 6.172-5.004 11.176-11.176 11.176z"/><path d="M141.824 581h-29.648c-6.173 0-11.176-5.004-11.176-11.176v-29.648c0-6.173 5.003-11.176 11.176-11.176h29.648c6.172 0 11.176 5.003 11.176 11.176v29.648c0 6.172-5.004 11.176-11.176 11.176z" stroke="#595959" stroke-width="2" stroke-linecap="round" stroke-linejoin="round"/><path d="M131.68 568h-3.24l-2.76-9.04h-8.32l-2.64 9.04h-3.12l8.24-28h3.32l8.52 28zm-6.72-12l-3.48-11.36-3.36 11.36h6.84zm13.519-14.76c0 .453-.159.84-.479 1.16-.32.32-.7.48-1.141.48-.44 0-.826-.166-1.159-.5-.334-.333-.5-.713-.5-1.14 0-.427.166-.806.5-1.14.333-.333.719-.5 1.159-.5.441 0 .821.16 1.141.48.32.32.479.707.479 1.16zm-3.12 6.72h2.88V568h-2.88v-20.04z" fill="#595959" fill-rule="nonzero"/><g transform="translate(1255 37)"><path d="M4.237 14.938l-3.101 5.169c-.442.737.19 1.652 1.036 1.498L11 20l8.828 1.605c.846.154 1.479-.761 1.036-1.498l-3.102-5.17" stroke="#595959" stroke-width="2"/><circle stroke="#595959" stroke-width="2" stroke-linecap="square" cx="11" cy="9" r="9"/><circle stroke="#595959" stroke-width="2" stroke-linecap="square" cx="11" cy="10" r="4"/><circle fill="#595959" fill-rule="nonzero" cx="11" cy="10" r="1"/></g><g stroke="#595959" stroke-width="2"><path d="M63 264v2m-5-1v2m10-2v2" stroke-linecap="square"/><path d="M72 271h4v4c0 1.1-.9 2-2 2h-2.5"/><path d="M63 283c-5 0-9-4-9-9v-3h18v3c0 5-4 9-9 9zm-9 3h18" stroke-linecap="square"/></g><g transform="translate(191 201)" stroke="#595959" stroke-width="2"><path d="M17.9 6L16 22H4L2.1 6"/><path stroke-linecap="square" d="M15 2l-1-2H6L5 2H0v4h20V2z"/><circle stroke-linecap="square" cx="10" cy="13" r="3"/></g><g transform="translate(1060 462)" stroke="#595959" stroke-width="2"><path d="M17.9 6L16 22H4L2.1 6"/><path stroke-linecap="square" d="M15 2l-1-2H6L5 2H0v4h20V2z"/><circle stroke-linecap="square" cx="10" cy="13" r="3"/></g><g stroke="#595959" stroke-width="2"><path d="M176 68l5 6-2.5 2.9M172 68l-3 11 5 5 5-5-3-11"/><path stroke-linecap="square" d="M176 68h-4l-2-4h8z"/></g><path d="M1183 404h-50a4 4 0 0 0-4 4v2h58v-2a4 4 0 0 0-4-4"/><path d="M1183 404h-50a4 4 0 0 0-4 4v2h58v-2a4 4 0 0 0-4-4z" stroke="#595959" stroke-width="2" stroke-linecap="round" stroke-linejoin="round"/><path d="M1181 375c0-12.703-10.297-23-23-23s-23 10.297-23 23 10.297 23 23 23 23-10.297 23-23"/><path d="M1181 375c0-12.703-10.297-23-23-23s-23 10.297-23 23 10.297 23 23 23 23-10.297 23-23z" stroke="#595959" stroke-width="2" stroke-linecap="round" stroke-linejoin="round"/><path d="M1166 375a8 8 0 1 0-16 0 8 8 0 0 0 16 0"/><path d="M1166 375a8 8 0 1 0-16 0 8 8 0 0 0 16 0zm-12 0c0-2.206 1.794-4 4-4" stroke="#595959" stroke-width="2" stroke-linecap="round" stroke-linejoin="round"/><path d="M1158 398a22.897 22.897 0 0 1-14.289-4.984L1135 404h46l-8.711-10.984A22.897 22.897 0 0 1 1158 398"/><path d="M1158 398a22.897 22.897 0 0 1-14.289-4.984L1135 404h46l-8.711-10.984A22.897 22.897 0 0 1 1158 398zm-22 9h-6.874m50.874 0h6.874" stroke="#595959" stroke-width="2" stroke-linecap="round" stroke-linejoin="round"/><path d="M1158 352c-12.703 0-23 10.297-23 23 2.102 0 3.94-1.474 4.331-3.539C1140.993 362.67 1148.732 356 1158 356s17.007 6.67 18.67 15.461c.391 2.065 2.228 3.539 4.33 3.539 0-12.703-10.297-23-23-23"/><path d="M1158 352c-12.703 0-23 10.297-23 23 2.102 0 3.94-1.474 4.331-3.539C1140.993 362.67 1148.732 356 1158 356s17.007 6.67 18.67 15.461c.391 2.065 2.228 3.539 4.33 3.539 0-12.703-10.297-23-23-23z" stroke="#595959" stroke-width="2" stroke-linecap="round" stroke-linejoin="round"/><path d="M92.774 178H71.226c-.224 0-.311-.307-.124-.437l1.805-1.273c1.947-1.374 2.868-3.891 2.3-6.29h13.587v.002c-.568 2.399.353 4.917 2.302 6.29l1.803 1.271c.186.131.098.437-.125.437z"/><path d="M92.774 178H71.226c-.224 0-.311-.307-.124-.437l1.805-1.273c1.947-1.374 2.868-3.891 2.3-6.29h13.587v.002c-.568 2.399.353 4.917 2.302 6.29l1.803 1.271c.186.131.098.437-.125.437z" stroke="#595959" stroke-width="2" stroke-linecap="round"/><path d="M107.502 170H56.498A3.498 3.498 0 0 1 53 166.501v-37.003A3.498 3.498 0 0 1 56.498 126h51.004a3.498 3.498 0 0 1 3.498 3.498v37.003a3.498 3.498 0 0 1-3.498 3.499z"/><path d="M107.502 170H56.498A3.498 3.498 0 0 1 53 166.501v-37.003A3.498 3.498 0 0 1 56.498 126h51.004a3.498 3.498 0 0 1 3.498 3.498v37.003a3.498 3.498 0 0 1-3.498 3.499z" stroke="#595959" stroke-width="2" stroke-linecap="round"/><path d="M111 161H53v-31.502A3.498 3.498 0 0 1 56.498 126h51.004a3.498 3.498 0 0 1 3.498 3.498V161z"/><path d="M111 161H53v-31.502A3.498 3.498 0 0 1 56.498 126h51.004a3.498 3.498 0 0 1 3.498 3.498V161zm-54-27l4-4m-4 9l2-2m4-4l3-3m-9 14l9-9m4-4l1-1" stroke="#595959" stroke-width="2" stroke-linecap="round"/><path d="M93.5 181h-23c-.825 0-1.5-.675-1.5-1.5s.675-1.5 1.5-1.5h23c.825 0 1.5.675 1.5 1.5s-.675 1.5-1.5 1.5z"/><path d="M93.5 181h-23c-.825 0-1.5-.675-1.5-1.5s.675-1.5 1.5-1.5h23c.825 0 1.5.675 1.5 1.5s-.675 1.5-1.5 1.5z" stroke="#595959" stroke-width="2" stroke-linecap="round"/><path d="M858 74c0 8.284-6.716 15-15 15-8.284 0-15-6.716-15-15 0-8.284 6.716-15 15-15 8.284 0 15 6.716 15 15z"/><path d="M858 74c0 8.284-6.716 15-15 15-8.284 0-15-6.716-15-15 0-8.284 6.716-15 15-15 8.284 0 15 6.716 15 15z" stroke="#595959" stroke-width="2"/><path d="M843 44v15c6.897 0 12.692 4.661 14.444 11H869V44h-26z"/><path d="M843 44v15c6.897 0 12.692 4.661 14.444 11H869V44h-26z" stroke="#595959" stroke-width="2" stroke-linejoin="round"/><path d="M843 59v-3.11l-11.814-20.675L811 70h17.556c1.753-6.339 7.547-11 14.444-11z"/><path d="M843 59v-3.11l-11.814-20.675L811 70h17.556c1.753-6.339 7.547-11 14.444-11z" stroke="#595959" stroke-width="2" stroke-linejoin="round"/><path d="M829 49a1 1 0 1 1-2 0 1 1 0 0 1 2 0m0-6a1 1 0 1 1-2 0 1 1 0 0 1 2 0m-3 3a1 1 0 1 1-2 0 1 1 0 0 1 2 0m6-6a1 1 0 1 1-2 0 1 1 0 0 1 2 0m0 6a1 1 0 1 1-2 0 1 1 0 0 1 2 0m3 3a1 1 0 1 1-2 0 1 1 0 0 1 2 0m0-6a1 1 0 1 1-2 0 1 1 0 0 1 2 0m3 3a1 1 0 1 1-2 0 1 1 0 0 1 2 0m-9 15a1 1 0 1 1-2 0 1 1 0 0 1 2 0m-6-6a1 1 0 1 1-2 0 1 1 0 0 1 2 0m6 0a1 1 0 1 1-2 0 1 1 0 0 1 2 0m-3-3a1 1 0 1 1-2 0 1 1 0 0 1 2 0m-6 6a1 1 0 1 1-2 0 1 1 0 0 1 2 0m3 3a1 1 0 1 1-2 0 1 1 0 0 1 2 0m3-3a1 1 0 1 1-2 0 1 1 0 0 1 2 0m6-6a1 1 0 1 1-2 0 1 1 0 0 1 2 0m0 6a1 1 0 1 1-2 0 1 1 0 0 1 2 0m3 3a1 1 0 1 1-2 0 1 1 0 0 1 2 0m0-6a1 1 0 1 1-2 0 1 1 0 0 1 2 0m3-3a1 1 0 1 1-2 0 1 1 0 0 1 2 0m0 6a1 1 0 1 1-2 0 1 1 0 0 1 2 0m3-3a1 1 0 1 1-2 0 1 1 0 0 1 2 0m-24 12a1 1 0 1 1-2 0 1 1 0 0 1 2 0m-3 3a1 1 0 1 1-2 0 1 1 0 0 1 2 0m6-6a1 1 0 1 1-2 0 1 1 0 0 1 2 0m3 3a1 1 0 1 1-2 0 1 1 0 0 1 2 0m6 0a1 1 0 1 1-2 0 1 1 0 0 1 2 0m-3-3a1 1 0 1 1-2 0 1 1 0 0 1 2 0m-6 6a1 1 0 1 1-2 0 1 1 0 0 1 2 0m6 0a1 1 0 1 1-2 0 1 1 0 0 1 2 0m6-6a1 1 0 1 1-2 0 1 1 0 0 1 2 0" fill="#595959" fill-rule="nonzero"/><path d="M909 286h42v-42h-42z"/><path stroke="#595959" stroke-width="2" stroke-linecap="round" stroke-linejoin="round" d="M909 286h42v-42h-42z"/><path d="M959 265l-29 29-29-29 29-29 29 29z" stroke="#595959" stroke-width="2" stroke-linecap="round" stroke-linejoin="round" stroke-dasharray="2,4,2,4,2,4"/><path d="M957 244c0-3.316-2.684-6-6-6m4 5l2 1 2-2" stroke="#595959" stroke-width="2" stroke-linecap="round" stroke-linejoin="round"/><path stroke="#595959" stroke-width="2" stroke-linecap="round" stroke-linejoin="round" d="M953 236l-2 2 1 2m-49 46c0 3.316 2.684 6 6 6"/><path stroke="#595959" stroke-width="2" stroke-linecap="round" stroke-linejoin="round" d="M905 287l-2-1-2 2m6 6l2-2-1-2"/><path d="M1356 268h44v44h-44z"/><path stroke="#595959" stroke-width="2" stroke-linecap="round" stroke-linejoin="round" d="M1356 268h44v44h-44z"/><path d="M1414 298l-14 14v-44l14-14z"/><path stroke="#595959" stroke-width="2" stroke-linecap="round" stroke-linejoin="round" d="M1414 298l-14 14v-44l14-14z"/><path d="M1370 268v30h30" stroke="#595959" stroke-width="2" stroke-linecap="round" stroke-linejoin="round" stroke-dasharray="3"/><path d="M1400 268h-44l14-14h44z"/><path stroke="#595959" stroke-width="2" stroke-linecap="round" stroke-linejoin="round" d="M1400 268h-44l14-14h44z"/><path d="M1356 312l14-14" stroke="#595959" stroke-width="2" stroke-linecap="round" stroke-linejoin="round" stroke-dasharray="3"/><path d="M460.444 67.887l9.899 9.9-3.001 3.001a6.756 6.756 0 0 0 0 9.554l2.294 2.294L439.23 99l6.364-30.406 2.295 2.294a6.753 6.753 0 0 0 9.553 0l3.002-3.001z"/><path d="M460.444 67.887l9.899 9.9-3.001 3.001a6.756 6.756 0 0 0 0 9.554l2.294 2.294L439.23 99l6.364-30.406 2.295 2.294a6.753 6.753 0 0 0 9.553 0l3.002-3.001zM439.23 99l15.557-15.556" stroke="#595959" stroke-width="2" stroke-linecap="round"/><path d="M463.979 64.352l9.9 9.899-3.536 3.536-9.899-9.9z"/><path stroke="#595959" stroke-width="2" stroke-linecap="round" d="M463.979 64.352l9.9 9.899-3.536 3.536-9.899-9.9z"/><path d="M468.929 62.23L476 69.302l-3.535 3.535-7.072-7.071z"/><path stroke="#595959" stroke-width="2" stroke-linecap="round" stroke-linejoin="round" d="M468.929 62.23L476 69.302l-3.535 3.535-7.072-7.071z"/><path d="M454.787 79.201a3 3 0 1 1 4.243 4.243 3 3 0 0 1-4.243-4.243z"/><path d="M454.787 79.201a3 3 0 1 1 4.243 4.243 3 3 0 0 1-4.243-4.243zM438 105.837C448.174 114.662 461.458 120 476 120m-58-58c0 14.452 5.272 27.661 14 37.811" stroke="#595959" stroke-width="2" stroke-linecap="round"/><path d="M432 100h6v6h-6z"/><path stroke="#595959" stroke-width="2" stroke-linecap="round" stroke-linejoin="round" d="M432 100h6v6h-6z"/><path d="M626.444 423.887l9.899 9.9-3.001 3.001a6.756 6.756 0 0 0 0 9.554l2.294 2.294L605.23 455l6.364-30.406 2.295 2.294a6.753 6.753 0 0 0 9.553 0l3.002-3.001z"/><path d="M626.444 423.887l9.899 9.9-3.001 3.001a6.756 6.756 0 0 0 0 9.554l2.294 2.294L605.23 455l6.364-30.406 2.295 2.294a6.753 6.753 0 0 0 9.553 0l3.002-3.001zM605.23 455l15.557-15.556" stroke="#595959" stroke-width="2" stroke-linecap="round"/><path d="M629.979 420.352l9.9 9.899-3.536 3.536-9.899-9.9z"/><path stroke="#595959" stroke-width="2" stroke-linecap="round" d="M629.979 420.352l9.9 9.899-3.536 3.536-9.899-9.9z"/><path d="M634.929 418.23l7.071 7.072-3.535 3.535-7.072-7.071z"/><path stroke="#595959" stroke-width="2" stroke-linecap="round" stroke-linejoin="round" d="M634.929 418.23l7.071 7.072-3.535 3.535-7.072-7.071z"/><path d="M620.787 435.201a3 3 0 1 1 4.243 4.243 3 3 0 0 1-4.243-4.243z"/><path d="M620.787 435.201a3 3 0 1 1 4.243 4.243 3 3 0 0 1-4.243-4.243zM604 461.837C614.174 470.662 627.458 476 642 476m-58-58c0 14.452 5.272 27.661 14 37.811" stroke="#595959" stroke-width="2" stroke-linecap="round"/><path d="M598 456h6v6h-6z"/><path stroke="#595959" stroke-width="2" stroke-linecap="round" stroke-linejoin="round" d="M598 456h6v6h-6z"/><g stroke="#595959" stroke-width="2"><path d="M523 547v2m-5-1v2m10-2v2" stroke-linecap="square"/><path d="M532 554h4v4c0 1.1-.9 2-2 2h-2.5"/><path d="M523 566c-5 0-9-4-9-9v-3h18v3c0 5-4 9-9 9zm-9 3h18" stroke-linecap="square"/></g><path d="M744.251 516.26l-4.95 4.95-2.828 2.828-4.95 4.95-4.243 4.243 2.828 2.828 3.536 3.536v-5c0-1.326.527-2.598 1.465-3.536l2.778-2.778a2 2 0 0 1 2.828 0l18.385 18.385-4.243 4.242 2.83 2.829L769 542.423l-2.829-2.828-4.243 4.242-18.385-18.385a2.001 2.001 0 0 1 0-2.828l2.78-2.778a4.997 4.997 0 0 1 3.534-1.465h5l-3.535-3.535-2.828-2.828-4.243 4.242z"/><path d="M744.251 516.26l-4.95 4.95-2.828 2.828-4.95 4.95-4.243 4.243 2.828 2.828 3.536 3.536v-5c0-1.326.527-2.598 1.465-3.536l2.778-2.778a2 2 0 0 1 2.828 0l18.385 18.385-4.243 4.242 2.83 2.829L769 542.423l-2.829-2.828-4.243 4.242-18.385-18.385a2.001 2.001 0 0 1 0-2.828l2.78-2.778a4.997 4.997 0 0 1 3.534-1.465h5l-3.535-3.535-2.828-2.828-4.243 4.242zm14.832 49.498c-.341 2.228-2.015 3.9-4.243 4.242l-39.597-39.597c-2.228.34-3.901 2.014-4.243 4.242" stroke="#595959" stroke-width="2" stroke-linecap="round" stroke-linejoin="round"/><path d="M570 291a3 3 0 1 0-6 0 3 3 0 0 0 6 0"/><path d="M570 291a3 3 0 1 0-6 0 3 3 0 0 0 6 0z" stroke="#595959" stroke-width="2" stroke-linecap="round" stroke-linejoin="round"/><path d="M564 291a2.99 2.99 0 0 1 1.239-2.419L551 267h29c0-15.909-13.091-29-29-29s-29 13.091-29 29 13.091 29 29 29c4.719 0 9.346-1.168 13.496-3.352A2.992 2.992 0 0 1 564 291"/><path d="M564 291a2.99 2.99 0 0 1 1.239-2.419L551 267h29c0-15.909-13.091-29-29-29s-29 13.091-29 29 13.091 29 29 29c4.719 0 9.346-1.168 13.496-3.352A2.992 2.992 0 0 1 564 291z" stroke="#595959" stroke-width="2" stroke-linecap="round" stroke-linejoin="round"/><path d="M558.707 278.682c3.79-2.505 6.293-6.8 6.293-11.682h-14l7.707 11.682z" stroke="#595959" stroke-width="2" stroke-linecap="round" stroke-linejoin="round" stroke-dasharray="2,4,2,4,2,4"/><path d="M1069.016 164.002h-43a2 2 0 0 0-2 2v10a2 2 0 0 0 2 2v7a3 3 0 1 0 6 0v8a3 3 0 1 0 6 0v-10.5a2.5 2.5 0 1 0 5 0v-4.5h26a2 2 0 0 0 2-2v-10a2 2 0 0 0-2-2"/><path d="M1069.016 164.002h-43a2 2 0 0 0-2 2v10a2 2 0 0 0 2 2v7a3 3 0 1 0 6 0v8a3 3 0 1 0 6 0v-10.5a2.5 2.5 0 1 0 5 0v-4.5h26a2 2 0 0 0 2-2v-10a2 2 0 0 0-2-2z" stroke="#595959" stroke-width="2" stroke-linecap="round" stroke-linejoin="round"/><path d="M1047.016 197.002v-7.012a2.98 2.98 0 0 1 3-2.988s21.128-1.82 22.008-2c2.28-.466 3.993-2.582 3.993-5v-4c0-2.764-2.237-5-5-5m-47.001 0h-2m21 42h3m-3 4h3m-18-43l5-6m2 6l5-6m2 6l5-6m2 6l5-6m2 6l5-6m1 6l5-6" stroke="#595959" stroke-width="2" stroke-linecap="round" stroke-linejoin="round"/><path d="M1054.016 197.002h-14l1 5h2v16a4 4 0 0 0 8 0v-16h2l1-5z"/><path d="M1054.016 197.002h-14l1 5h2v16a4 4 0 0 0 8 0v-16h2l1-5z" stroke="#595959" stroke-width="2" stroke-linecap="round" stroke-linejoin="round"/><path d="M1032.016 182.003v3" fill="#C6E3F8" fill-rule="nonzero"/><path d="M1032.016 182.003v3m6-4.001v2" stroke="#595959" stroke-width="2" stroke-linecap="round" stroke-linejoin="round"/><g stroke="#595959" stroke-width="2"><path d="M1071 300l-15 12v7l3.6-4.3"/><path stroke-linecap="square" d="M1051 308l20-8-4 20z"/></g><g transform="translate(26 32)" stroke="#595959" stroke-width="2"><path d="M0 15.5V3c0-1.7 1.3-3 3-3h1m18 15.5V3c0-1.7-1.3-3-3-3h-1"/><path d="M9 15c0-1.1.9-2 2-2s2 .9 2 2" stroke-linecap="square"/><circle stroke-linecap="square" cx="4.5" cy="15.5" r="4.5"/><circle stroke-linecap="square" cx="17.5" cy="15.5" r="4.5"/></g><g transform="translate(198 450)"><path d="M18 22H2a2 2 0 0 1-2-2V2a2 2 0 0 1 2-2h16a2 2 0 0 1 2 2v18a2 2 0 0 1-2 2z" stroke="#595959" stroke-width="2" stroke-linecap="square"/><circle fill="#595959" fill-rule="nonzero" cx="10" cy="18" r="1"/></g><path d="M701 118.002v-46" stroke="#595959" stroke-width="2" stroke-linecap="round" stroke-linejoin="round"/><path d="M700.818 117.944L676 110.002v-46l25 8v45.809a.14.14 0 0 1-.182.133"/><path d="M700.818 117.944L676 110.002v-46l25 8v45.809a.14.14 0 0 1-.182.133zM681.017 76.46L688 79.263m-6.983 2.739l14.964 5.522m-14.964.478l14.964 5.522m-14.964.478l14.964 5.522m-14.964.478l14.964 5.522" stroke="#595959" stroke-width="2" stroke-linecap="round" stroke-linejoin="round"/><path d="M701.182 117.944L726 110.002v-46l-25 8v45.809a.14.14 0 0 0 .182.133"/><path d="M701.182 117.944L726 110.002v-46l-25 8v45.809a.14.14 0 0 0 .182.133z" stroke="#595959" stroke-width="2" stroke-linecap="round" stroke-linejoin="round"/><path d="M726 72.002v38l-24.818 7.942a.14.14 0 0 1-.182-.133.14.14 0 0 1-.182.133L676 110.002v-38h-3.525a.475.475 0 0 0-.475.475v45.05c0 .262.213.475.475.475h57.05a.475.475 0 0 0 .475-.475v-45.05a.475.475 0 0 0-.475-.475H726z"/><path d="M726 72.002v38l-24.818 7.942a.14.14 0 0 1-.182-.133.14.14 0 0 1-.182.133L676 110.002v-38h-3.525a.475.475 0 0 0-.475.475v45.05c0 .262.213.475.475.475h57.05a.475.475 0 0 0 .475-.475v-45.05a.475.475 0 0 0-.475-.475H726zm-5 4l-14.964 5.522m14.964.478l-14.964 5.522m14.964.478l-14.964 5.522m14.964.478l-14.964 5.522m14.964.478l-14.964 5.522" stroke="#595959" stroke-width="2" stroke-linecap="round" stroke-linejoin="round"/><path d="M304 46h-30l5-14h21z"/><path stroke="#595959" stroke-width="2" stroke-linecap="round" stroke-linejoin="round" d="M304 46h-30l5-14h21z"/><path d="M318 43l-14 3-4-14 10-4z"/><path stroke="#595959" stroke-width="2" stroke-linecap="round" stroke-linejoin="round" d="M318 43l-14 3-4-14 10-4z"/><path d="M260 43l14 3 5-14-11-4z"/><path stroke="#595959" stroke-width="2" stroke-linecap="round" stroke-linejoin="round" d="M260 43l14 3 5-14-11-4z"/><path d="M310 28l-10 4h-21l-11-4 11-2h21z"/><path stroke="#595959" stroke-width="2" stroke-linecap="round" stroke-linejoin="round" d="M310 28l-10 4h-21l-11-4 11-2h21z"/><path d="M260 43l14 3 5-14-11-4z"/><path stroke="#595959" stroke-width="2" stroke-linecap="round" stroke-linejoin="round" d="M260 43l14 3 5-14-11-4z"/><path d="M304 46h-30l-14-3 29 41 29-41z"/><path stroke="#595959" stroke-width="2" stroke-linecap="round" stroke-linejoin="round" d="M304 46h-30l-14-3 29 41 29-41zm-30 0l15 38m15-38l-15 38"/><g stroke-linecap="square" stroke="#595959" stroke-width="2"><path d="M465 343h13c1.1 0 2 .9 2 2v18c0 1.1-.9 2-2 2h-13m-3-22h3v22h-3z"/><path d="M469 347h7v4h-7zm0 7h7m-7 3h3m10-11v2m0 3v2"/></g><g stroke-linecap="square" stroke="#595959" stroke-width="2"><path d="M675 335v-3h8v3m-6 11h-9v-11h22v11h-9m8 0v6h-20v-6"/><path d="M677 344h4v4h-4z"/></g><g stroke-linecap="square" stroke="#595959" stroke-width="2"><path d="M1273 506h12m-17-20h22v16h-22z"/><path d="M1277 490l6 4-6 4z"/></g><g transform="translate(401 228)"><path d="M11 22v-4m-6 4h12" stroke="#595959" stroke-width="2" stroke-linecap="square"/><circle fill="#444" fill-rule="nonzero" cx="11" cy="4" r="1"/><path d="M20 18H2a2 2 0 0 1-2-2V2a2 2 0 0 1 2-2h18a2 2 0 0 1 2 2v14a2 2 0 0 1-2 2zM0 14h22" stroke="#595959" stroke-width="2" stroke-linecap="square"/></g><g transform="translate(30 423)"><path d="M11 22v-4m-6 4h12" stroke="#595959" stroke-width="2" stroke-linecap="square"/><circle fill="#444" fill-rule="nonzero" cx="11" cy="4" r="1"/><path d="M20 18H2a2 2 0 0 1-2-2V2a2 2 0 0 1 2-2h18a2 2 0 0 1 2 2v14a2 2 0 0 1-2 2zM0 14h22" stroke="#595959" stroke-width="2" stroke-linecap="square"/></g><g stroke="#595959" stroke-width="2"><path d="M1228 307.1l-4 2.9v12h22v-12l-4-2.9"/><path d="M1228 312.2V300h14v12.2m-18-2.2l22 12m0-12l-11 6"/><path stroke-linecap="square" d="M1233 305l-2 2 2 2m4-4l2 2-2 2"/></g><g stroke="#595959" stroke-width="2"><path d="M360 422l-15 12v7l3.6-4.3"/><path stroke-linecap="square" d="M340 430l20-8-4 20z"/></g><g stroke-linecap="square" stroke="#595959" stroke-width="2"><path d="M1341 384l-7 7-7-7"/><path d="M1323 380h22v18h-22zm6 12l-2 2m12-2l2 2"/></g><path d="M1411.132 517H1401v23.427a.572.572 0 0 1-.573.573h-3.854a.572.572 0 0 1-.573-.573V517h-35.132a3.868 3.868 0 0 0-3.868 3.868v37.264a3.868 3.868 0 0 0 3.868 3.868h50.264a3.868 3.868 0 0 0 3.868-3.868v-37.264a3.868 3.868 0 0 0-3.868-3.868z"/><path d="M1411.132 517H1401v23.427a.572.572 0 0 1-.573.573h-3.854a.572.572 0 0 1-.573-.573V517h-35.132a3.868 3.868 0 0 0-3.868 3.868v37.264a3.868 3.868 0 0 0 3.868 3.868h50.264a3.868 3.868 0 0 0 3.868-3.868v-37.264a3.868 3.868 0 0 0-3.868-3.868z" stroke="#595959" stroke-width="2" stroke-linecap="round"/><path d="M1357 524h13v31h-13z"/><path stroke="#595959" stroke-width="2" stroke-linecap="round" d="M1357 524h13v31h-13zm54 14v5m-49-15h3m-3 4h3m-3 15h3m-3 4h3"/><path d="M1367 539.5a3.5 3.5 0 1 1-7 0 3.5 3.5 0 0 1 7 0z"/><path d="M1367 539.5a3.5 3.5 0 1 1-7 0 3.5 3.5 0 0 1 7 0z" stroke="#595959" stroke-width="2" stroke-linecap="round"/><path d="M1365 539.5a1.5 1.5 0 1 1-3.001-.001 1.5 1.5 0 0 1 3.001.001" fill="#595959" fill-rule="nonzero"/><path d="M1397 514v-3.5c0-.825.675-1.5 1.5-1.5s1.5.675 1.5 1.5v3.5h-3z"/><path d="M1397 514v-3.5c0-.825.675-1.5 1.5-1.5s1.5.675 1.5 1.5v3.5h-3zm3.428 27h-3.856a.572.572 0 0 1-.572-.573V514h5v26.427a.572.572 0 0 1-.572.573z" stroke="#595959" stroke-width="2" stroke-linecap="round"/><path d="M1400.428 541h-3.856a.572.572 0 0 1-.572-.573V514h5v26.427a.572.572 0 0 1-.572.573z"/><path d="M1400.428 541h-3.856a.572.572 0 0 1-.572-.573V514h5v26.427a.572.572 0 0 1-.572.573z" stroke="#595959" stroke-width="2" stroke-linecap="round"/><path d="M1401 524v16.427a.572.572 0 0 1-.573.573h-3.854a.572.572 0 0 1-.573-.573V524h-26v31h37v-31h-6z" stroke="#595959" stroke-width="2" stroke-linecap="round"/><path fill="#595959" fill-rule="nonzero" d="M1398 545h1v3h-1z"/><path d="M1399 545h-1l-1.771-3.542a.317.317 0 0 1 .284-.458h3.975c.235 0 .388.248.283.458L1399 545z" stroke="#595959" stroke-width="2" stroke-linecap="round"/><g stroke-linecap="square" stroke="#595959" stroke-width="2"><path d="M332 550l-7 7-7-7"/><path d="M314 546h22v18h-22zm6 12l-2 2m12-2l2 2"/></g><g stroke-linecap="square" stroke="#595959" stroke-width="2"><path d="M987 377l-7 7-7-7"/><path d="M969 373h22v18h-22zm6 12l-2 2m12-2l2 2"/></g><g stroke="#595959" stroke-width="2"><path d="M703.9 224.3L702 228h-2l-1.9-3.7m-.1 7.7l2-4m2 0l2 4"/><path d="M697.7 224h-.7c-3.9 0-7 3.1-7 7v1h22v-1c0-3.9-3.1-7-7-7h-.7m-9.3-7.2c1 .7 2.2 1.2 3.5 1.2 2.2 0 4.1-1.3 5-3.2.7 1.5 1.9 2.6 3.5 3"/><path d="M701 225c-3.3 0-6-2.7-6-6v-3c0-3.3 2.7-6 6-6s6 2.7 6 6v3c0 3.3-2.7 6-6 6z" stroke-linecap="square"/></g><path d="M579 41.6l3 6.4h6.4l-4.7 4.9 1.9 7.5-6.6-3.8-6.6 3.8 1.9-7.5-4.7-4.9h6.4z" stroke-linecap="square" stroke="#595959" stroke-width="2"/><g transform="translate(1145 174)" stroke="#595959" stroke-width="2"><path d="M19 3.5c-1.9 2-3 4.6-3 7.5 0 2.9 1.1 5.6 3 7.5M3 3.5c1.9 2 3 4.6 3 7.5 0 2.9-1.1 5.6-3 7.5M11 0v22m11-11H0"/><circle stroke-linecap="square" cx="11" cy="11" r="11"/></g><g stroke-linecap="square" transform="translate(557 163)" stroke="#595959" stroke-width="2"><circle cx="8" cy="11" r="8"/><path d="M8 8v3h3M2 2V0h12v2M2 20v2h12v-2"/></g><g stroke-linecap="square" stroke="#595959" stroke-width="2"><path d="M1178 80h18v12h-18zm4-4v4m10-4v4"/><path d="M1174 98V76h22"/></g><g stroke-linecap="square" stroke="#595959" stroke-width="2"><path d="M837 455h18v12h-18zm4-4v4m10-4v4"/><path d="M833 473v-22h22"/></g><path d="M955.824 556h-29.648c-6.173 0-11.176-5.004-11.176-11.176v-29.648c0-6.173 5.003-11.176 11.176-11.176h29.648c6.172 0 11.176 5.003 11.176 11.176v29.648c0 6.172-5.004 11.176-11.176 11.176z"/><path d="M955.824 556h-29.648c-6.173 0-11.176-5.004-11.176-11.176v-29.648c0-6.173 5.003-11.176 11.176-11.176h29.648c6.172 0 11.176 5.003 11.176 11.176v29.648c0 6.172-5.004 11.176-11.176 11.176z" stroke="#595959" stroke-width="2" stroke-linecap="round" stroke-linejoin="round"/><path d="M927.16 543h-2.88v-28h9.64c2.613 0 4.553.813 5.82 2.44 1.266 1.626 1.9 3.76 1.9 6.4 0 .933-.027 1.74-.08 2.42-.054.68-.22 1.534-.5 2.56-.28 1.027-.66 1.866-1.14 2.52-.48.654-1.214 1.226-2.2 1.72-.987.494-2.16.74-3.52.74h-7.04v9.2zm0-12h6.68c.96 0 1.773-.187 2.44-.56.666-.374 1.153-.773 1.46-1.2.306-.426.547-1.04.72-1.84.173-.8.267-1.4.28-1.8.013-.4.02-.973.02-1.72 0-4.053-1.694-6.08-5.08-6.08h-6.52V531zm17.32 6.92l2.8-.12c.106.987.6 1.754 1.48 2.3.88.547 1.893.82 3.04.82 1.146 0 2.14-.26 2.98-.78.84-.52 1.26-1.266 1.26-2.24 0-.973-.36-1.747-1.08-2.32-.72-.573-1.6-1.026-2.64-1.36-1.04-.333-2.087-.686-3.14-1.06a7.36 7.36 0 0 1-2.78-1.76c-.987-.933-1.48-2.073-1.48-3.42 0-1.346.54-2.6 1.62-3.76 1.08-1.16 2.833-1.74 5.26-1.74.853 0 1.653.1 2.4.3.746.201 1.28.394 1.6.58l.48.28-.92 2.52c-.854-.666-1.974-1-3.36-1-1.387 0-2.42.26-3.1.78-.68.52-1.02 1.18-1.02 1.98 0 .88.426 1.574 1.28 2.08.853.507 1.813.934 2.88 1.28 1.066.347 2.126.734 3.18 1.16a6.594 6.594 0 0 1 2.68 2c.733.907 1.1 2.107 1.1 3.6 0 1.494-.6 2.794-1.8 3.9-1.2 1.106-2.954 1.66-5.26 1.66-2.307 0-4.114-.547-5.42-1.64-1.307-1.093-1.987-2.44-2.04-4.04" fill="#595959" fill-rule="nonzero"/></g></svg>